<?xml version="1.0" standalone="no"?>
<!DOCTYPE svg PUBLIC "-//W3C//DTD SVG 20010904//EN"
 "http://www.w3.org/TR/2001/REC-SVG-20010904/DTD/svg10.dtd">
<svg version="1.0" xmlns="http://www.w3.org/2000/svg"
 width="1024.000000pt" height="1024.000000pt" viewBox="0 0 1024.000000 1024.000000"
 preserveAspectRatio="xMidYMid meet">
<metadata>
Created by potrace 1.11, written by Peter Selinger 2001-2013
</metadata>
<g transform="translate(0.000000,1024.000000) scale(0.100000,-0.100000)"
fill="#000000" stroke="none">
<path d="M0 5120 l0 -5120 5120 0 5120 0 0 5120 0 5120 -5120 0 -5120 0 0
-5120z m5883 4350 c88 -13 153 -47 220 -115 88 -91 137 -219 123 -325 -3 -25
-37 -142 -75 -260 -38 -118 -138 -426 -221 -685 -83 -258 -196 -607 -250 -775
-54 -168 -116 -360 -138 -427 l-40 -123 967 0 c531 -1 999 -5 1039 -9 129 -15
242 -93 306 -210 70 -130 72 -252 6 -380 -12 -25 -235 -412 -495 -860 -260
-449 -481 -832 -492 -851 -12 -19 -70 -120 -130 -225 -870 -1505 -1109 -1918
-1296 -2240 -121 -209 -245 -423 -275 -475 -203 -352 -319 -550 -341 -581 -44
-61 -125 -122 -185 -141 -166 -51 -349 -9 -450 103 -71 79 -99 146 -104 248
-4 90 24 215 759 3306 16 65 27 120 25 122 -1 2 -464 3 -1028 3 -1104 0 -1067
-1 -1170 51 -62 32 -161 132 -192 194 -43 88 -43 150 -2 455 19 146 92 690
161 1210 149 1123 153 1156 165 1240 5 36 48 358 95 715 47 358 90 673 96 700
19 85 67 170 130 230 66 63 128 93 214 105 89 11 2496 12 2578 0z"/>
</g>
</svg>
